#!OML:ASF C:\ViconDB\ViconDB\414\Spring2016\041811\Spring2016.ASF
:FULLY-SPECIFIED
:DEGREES
333
root 7.55736 18.0877 -32.6725 -181.2 3.40047 -184.205
lowerback -1.62964 1.19948 -4.89168
upperback -0.892083 1.75518 -1.69629
thorax -0.0935547 0.92774 1.02325
lowerneck -10.5166 11.4332 0.811226
upperneck 40.204 6.91744 13.3961
head 15.3344 3.11307 6.22276
rclavicle -2.0276e-014 -5.96354e-016
rhumerus -87.7768 35.3299 -123.31
rradius 84.7476
rwrist 23.863
rhand -44.5369 -1.89708
rfingers 7.12502
rthumb -17.338 -31.1437
lclavicle -2.0276e-014 -5.96354e-016
lhumerus -94.1142 -46.0568 126.569
lradius 80.1654
lwrist -20.3868
lhand -39.7988 -2.36974
lfingers 7.12502
lthumb -12.7738 27.2195
rfemur 231 204.51 -539.439
rtibia -65.6972
rfoot -588.766 -99.0793
rtoes -21.7672
lfemur -18.6164 -10.4908 -27.3002
ltibia 33.2163
lfoot -17.1963 -6.48334
ltoes -10.5882
334
root 7.51409 18.0996 -32.8579 -181.105 3.64056 -184.757
lowerback -1.89901 0.989773 -5.05911
upperback -0.730092 1.49501 -1.55742
thorax 0.22962 0.786149 1.26427
lowerneck -10.5968 4.86641 2.14232
upperneck 41.1832 10.724 9.51818
head 15.9668 8.25815 6.05264
rclavicle -5.10007e-015 2.33572e-014
rhumerus -87.4409 35.6604 -122.973
rradius 84.7229
rwrist 24.252
rhand -44.6474 -2.27571
rfingers 7.12502
rthumb -17.4443 -31.513
lclavicle -5.10007e-015 2.33572e-014
lhumerus -94.3478 -46.1398 127.187
lradius 80.125
lwrist -19.4816
lhand -39.9914 -2.51358
lfingers 7.12502
lthumb -12.9594 27.064
rfemur 228.678 204.348 -539.341
rtibia -65.8161
rfoot -594.003 -98.28
rtoes -21.5604
lfemur -17.7176 -10.0022 -28.1747
ltibia 32.5898
lfoot -17.4413 -6.83325
ltoes -10.1597
335
root 7.4763 18.1148 -33.0405 -181.049 3.94905 -185.064
lowerback -1.98107 0.875404 -4.86966
upperback -0.644346 1.34069 -1.48751
thorax 0.375354 0.701681 1.23049
lowerneck -10.7813 5.17795 2.14538
upperneck 41.1396 11.2576 9.0289
head 15.9977 8.36152 5.91834
rclavicle 7.57401e-015 3.47873e-015
rhumerus -87.0751 35.6527 -122.742
rradius 84.6924
rwrist 25.2007
rhand -44.8362 -3.63307
rfingers 7.12502
rthumb -17.626 -32.8541
lclavicle 7.57401e-015 3.47873e-015
lhumerus -95.0256 -46.3586 128.022
lradius 79.9873
lwrist -18.8856
lhand -40.3384 -2.08378
lfingers 7.12502
lthumb -13.294 27.4722
rfemur 226.039 203.822 -538.855
rtibia -65.6172
rfoot -602.135 -97.9237
rtoes -22.1154
lfemur -16.8407 -9.44026 -28.7417
ltibia 32.0007
lfoot -17.7078 -7.19596
ltoes -10.0429
336
root 7.43636 18.1197 -33.2288 -181.051 4.24066 -185.368
lowerback -2.01098 0.733962 -4.65616
upperback -0.603926 1.14468 -1.4144
thorax 0.447318 0.599068 1.1835
lowerneck -10.8086 5.49426 2.26866
upperneck 41.1289 11.8682 8.42657
head 16.0306 8.51228 5.72498
rclavicle 1.07157e-015 9.93923e-017
rhumerus -86.7814 35.6624 -122.419
rradius 84.4848
rwrist 26.8229
rhand -45.3503 -4.44851
rfingers 7.12502
rthumb -18.1207 -33.6244
lclavicle 1.07157e-015 9.93923e-017
lhumerus -95.6572 -46.4141 128.721
lradius 79.8418
lwrist -18.3524
lhand -40.6613 -2.00074
lfingers 7.12502
lthumb -13.6052 27.5347
rfemur 223.354 203.378 -538.415
rtibia -65.1343
rfoot -612.439 -97.2317
rtoes -23.4633
lfemur -15.863 -8.72276 -29.3572
ltibia 31.4291
lfoot -17.8041 -7.67568
ltoes -10.9876
337
root 7.39506 18.1197 -33.4215 -181.096 4.49116 -185.924
lowerback -1.99877 0.59227 -4.68441
upperback -0.608961 0.956091 -1.42407
thorax 0.44532 0.505238 1.18513
lowerneck -10.7722 5.75394 2.45194
upperneck 41.1342 12.4101 7.82018
head 16.0739 8.65328 5.51374
rclavicle -2.84511e-015 2.24627e-014
rhumerus -86.5225 35.5139 -122.019
rradius 84.2262
rwrist 29.3093
rhand -46.1513 -5.54197
rfingers 7.12502
rthumb -18.8913 -34.6446
lclavicle -2.84511e-015 2.24627e-014
lhumerus -96.5261 -46.496 129.62
lradius 79.8432
lwrist -17.4955
lhand -40.8375 -1.83453
lfingers 7.12502
lthumb -13.775 27.6894
rfemur 220.534 203.024 -538.298
rtibia -64.397
rfoot -625.16 -96.4197
rtoes -23.8026
lfemur -14.8391 -7.88544 -30.2583
ltibia 30.8559
lfoot -18.2963 -8.25957
ltoes -11.0418
338
root 7.35534 18.1238 -33.6144 -181.182 4.77456 -186.211
lowerback -1.95854 0.471182 -4.49325
upperback -0.571219 0.780905 -1.30061
thorax 0.471721 0.413274 1.20112
lowerneck -10.8184 6.03456 2.42944
upperneck 41.1899 13.0009 7.34648
head 16.1343 8.8025 5.4122
rclavicle 1.52195e-014 -4.37326e-015
rhumerus -86.1923 35.3794 -121.408
rradius 84.1237
rwrist 31.2244
rhand -46.4014 -6.58428
rfingers 7.12502
rthumb -19.1318 -35.6633
lclavicle 1.52195e-014 -4.37326e-015
lhumerus -97.1128 -46.5322 130.379
lradius 79.7313
lwrist -16.9104
lhand -41.0527 -1.42432
lfingers 7.12502
lthumb -13.9825 28.0855
rfemur 217.482 202.525 -537.805
rtibia -63.3098
rfoot -643.068 -96.1738
rtoes -24.0186
lfemur -13.7562 -7.03882 -30.8216
ltibia 30.2375
lfoot -18.4916 -8.88813
ltoes -11.8262
339
root 7.32153 18.1154 -33.8108 -181.215 5.03167 -186.683
lowerback -1.98601 0.35456 -4.43842
upperback -0.610367 0.626977 -1.34674
thorax 0.456369 0.338097 1.11989
lowerneck -10.7298 6.25743 2.6587
upperneck 41.2012 13.4775 6.82904
head 16.179 8.94655 5.22477
rclavicle -9.69075e-016 3.26007e-014
rhumerus -85.9473 35.0983 -121.027
rradius 84.0994
rwrist 33.1825
rhand -46.7486 -7.44282
rfingers 7.12502
rthumb -19.4656 -36.4884
lclavicle -9.69075e-016 3.26007e-014
lhumerus -98.1335 -46.5886 131.155
lradius 79.8983
lwrist -16.3699
lhand -41.3467 -1.05203
lfingers 7.12502
lthumb -14.2657 28.438
rfemur 214.288 202.295 -537.439
rtibia -61.9863
rfoot -662.671 -96.5486
rtoes -22.9017
lfemur -12.757 -6.41234 -31.556
ltibia 29.6598
lfoot -18.8049 -9.28806
ltoes -11.9528
340
root 7.28372 18.1122 -34.0078 -181.234 5.31713 -187.337
lowerback -2.03233 0.262362 -4.50385
upperback -0.66409 0.51252 -1.44244
thorax 0.433583 0.284508 1.05581
lowerneck -10.6596 6.47912 2.82616
upperneck 41.2367 13.9593 6.3809
head 16.2321 9.09636 5.08331
rclavicle -1.31446e-014 2.54444e-014
rhumerus -85.6688 34.7642 -120.557
rradius 84.056
rwrist 34.9882
rhand -47.0352 -8.54771
rfingers 7.12502
rthumb -19.7411 -37.5653
lclavicle -1.31446e-014 2.54444e-014
lhumerus -98.7475 -46.6098 131.841
lradius 79.7363
lwrist -15.7923
lhand -41.4452 -0.98134
lfingers 7.12502
lthumb -14.3606 28.5019
rfemur 149.179 381.954 -537.251
rtibia 60.3844
rfoot -679.809 -82.723
rtoes -22.5667
lfemur -11.7998 -5.72428 -32.4736
ltibia 29.076
lfoot -19.5381 -9.75801
ltoes -9.54274
341
root 7.24626 18.101 -34.2038 -181.244 5.63005 -187.58
lowerback -2.10129 0.164165 -4.21516
upperback -0.671317 0.374968 -1.40005
thorax 0.473354 0.213275 0.935315
lowerneck -10.5882 6.73165 3.04972
upperneck 41.2139 14.4875 5.83247
head 16.2757 9.25282 4.89271
rclavicle -1.54058e-014 -1.59028e-015
rhumerus -85.4954 34.6141 -120.516
rradius 86.0041
rwrist 26.3108
rhand -43.6095 -1.07795
rfingers 7.12502
rthumb -16.4453 -30.4009
lclavicle -1.54058e-014 -1.59028e-015
lhumerus -99.2346 -46.6626 132.324
lradius 79.7171
lwrist -15.2782
lhand -41.5111 -1.01365
lfingers 7.12502
lthumb -14.4241 28.4651
rfemur 152.715 381.757 -536.527
rtibia 58.5418
rfoot -688.797 -81.2188
rtoes -20.1752
lfemur -10.8542 -5.08667 -32.9472
ltibia 28.538
lfoot -19.8815 -10.1409
ltoes -9.22775
342
root 7.21481 18.0855 -34.4035 -181.241 5.94051 -188.112
lowerback -2.33266 0.032032 -4.31365
upperback -0.66226 0.218003 -1.4361
thorax 0.619588 0.133443 0.950281
lowerneck -10.5308 6.98035 3.13953
upperneck 41.2204 14.9638 5.50528
head 16.3035 9.40094 4.81
rclavicle 7.30534e-015 -1.59028e-015
rhumerus -85.1757 34.4402 -120.153
rradius 86.2859
rwrist 26.0321
rhand -43.4086 -0.417138
rfingers 7.12502
rthumb -16.2518 -29.756
lclavicle 7.30534e-015 -1.59028e-015
lhumerus -99.5661 -46.645 132.655
lradius 79.7481
lwrist -14.4978
lhand -41.424 -0.945454
lfingers 7.12502
lthumb -14.3402 28.5393
rfemur 156.378 381.632 -536.057
rtibia 56.5386
rfoot -700.743 -79.6009
rtoes -20.2202
lfemur -9.96366 -3.95722 -33.6508
ltibia 27.996
lfoot -20.0864 -11.0138
ltoes -8.80808
343
root 7.18453 18.0602 -34.6049 -181.17 6.26193 -188.8
lowerback -2.70311 -0.135438 -4.61409
upperback -0.638618 0.0331688 -1.50335
thorax 0.860489 0.0389354 1.04395
lowerneck -10.4868 7.28398 3.36968
upperneck 41.1586 15.4915 5.07855
head 16.329 9.56691 4.66724
rclavicle 3.00662e-015 4.77083e-015
rhumerus -84.9604 34.4567 -119.955
rradius 86.3886
rwrist 26.6126
rhand -43.5301 -0.662641
rfingers 7.12502
rthumb -16.3688 -29.9919
lclavicle 3.00662e-015 4.77083e-015
lhumerus -99.6166 -46.5639 132.672
lradius 79.7128
lwrist -14.096
lhand -41.5676 -1.06267
lfingers 7.12502
lthumb -14.4785 28.4122
rfemur 160.194 381.669 -535.65
rtibia 54.3867
rfoot -707.469 -77.7688
rtoes -19.1772
lfemur -9.18051 -2.99671 -34.5248
ltibia 27.5141
lfoot -20.3025 -11.7799
ltoes -9.08294
344
root 7.15479 18.0334 -34.8049 -180.979 6.61224 -189.264
lowerback -3.0769 -0.260588 -4.63959
upperback -0.699694 -0.107631 -1.52118
thorax 1.01462 -0.0317777 1.03442
lowerneck -10.4345 7.51092 3.51816
upperneck 41.1252 15.949 4.64082
head 16.3664 9.69884 4.52833
rclavicle -6.95746e-016 1.59028e-014
rhumerus -84.7513 34.3245 -119.677
rradius 86.4056
rwrist 27.6392
rhand -43.5787 -1.10779
rfingers 7.12502
rthumb -16.4156 -30.4332
lclavicle -6.95746e-016 1.59028e-014
lhumerus -99.8028 -46.511 132.799
lradius 79.6726
lwrist -13.9299
lhand -41.6477 -1.09393
lfingers 7.12502
lthumb -14.5558 28.3754
rfemur 164.155 381.85 -534.829
rtibia 52.1128
rfoot -712.339 -76.0021
rtoes -17.8496
lfemur -8.56583 -1.97398 -35.1403
ltibia 27.0746
lfoot -20.4814 -12.5862
ltoes -9.55017
